<svg xmlns="http://www.w3.org/2000/svg" viewBox="0 0 716.82 177.35"><g id="b8b4d463-2430-43fd-94c2-6cdeaa7e4390" data-name="Layer 2"><g id="f44ab37a-2669-437d-ae2e-c013514ac337" data-name="Layer 1"><path d="M184.27,147.27a21.88,21.88,0,0,1-11.25-3,22.8,22.8,0,0,1-8.2-8.21,21.74,21.74,0,0,1-3-11.25V60.33a21.63,21.63,0,0,1,3-11.32,22.93,22.93,0,0,1,8.2-8.14,21.88,21.88,0,0,1,11.25-3h64.29a21.72,21.72,0,0,1,11.32,3A23.78,23.78,0,0,1,268.09,49a21.23,21.23,0,0,1,3.12,11.32V70.66H247.34V61.55h-62v62h62V107.14H223.63V83.43h47.58v41.34A21.34,21.34,0,0,1,268.09,136a23.64,23.64,0,0,1-8.21,8.21,21.72,21.72,0,0,1-11.32,3Z" fill="#fff"/><path d="M287.32,53.64V30.24h23.25v23.4Zm0,93.63V59.11h23.25v88.16Z" fill="#fff"/><path d="M337.77,144.23a23.61,23.61,0,0,1-8-8.06,20.68,20.68,0,0,1-3-10.94V30.08h23.4V124h17.79v23.26H348.72A20.8,20.8,0,0,1,337.77,144.23Z" fill="#fff"/><path d="M390.51,144.23a23.61,23.61,0,0,1-8.05-8.06,20.68,20.68,0,0,1-3-10.94V30.08h23.4V124H420.6v23.26H401.45A20.77,20.77,0,0,1,390.51,144.23Z" fill="#fff"/><path d="M431.24,147.27V37.83h24.32l61.25,73v-73h23.86V147.27H516.36L454.8,74v73.26Z" fill="#fff"/><path d="M566.51,144.23a23.72,23.72,0,0,1-8.06-8.06,20.77,20.77,0,0,1-3-10.94V81.15a20.77,20.77,0,0,1,3-10.94,23.64,23.64,0,0,1,8.06-8.06,20.77,20.77,0,0,1,10.94-3h45.3a21,21,0,0,1,11.09,3,23,23,0,0,1,8,8.06,21.07,21.07,0,0,1,3,10.94v33.74H578.67V124h66.11v23.26H577.45A20.77,20.77,0,0,1,566.51,144.23Zm12.16-49.7h42.86V82.37H578.67Z" fill="#fff"/><path d="M672,144.23a23.64,23.64,0,0,1-8.06-8.06,20.68,20.68,0,0,1-3-10.94V33h23.26V59.11h32.67V82.37H684.15V124h32.67v23.26H683.08A21,21,0,0,1,672,144.23Z" fill="#fff"/><path d="M94.34,177.07a85.41,85.41,0,0,1-35-4.6A88.79,88.79,0,0,1,1.9,106.94a89,89,0,0,1,0-36.53A89.63,89.63,0,0,1,7.5,52.94,89.11,89.11,0,0,1,59.36,4.87a85.29,85.29,0,0,1,35-4.59A98.1,98.1,0,0,0,61,8.94a91.19,91.19,0,0,0-27.5,19.49A87.83,87.83,0,0,0,15.3,56.26,85.64,85.64,0,0,0,8.94,88.67a85.43,85.43,0,0,0,6.35,32.42,87.56,87.56,0,0,0,18.22,27.84A90.94,90.94,0,0,0,61,168.42,98.09,98.09,0,0,0,94.34,177.07Z" fill="#57cc99"/><path d="M109.19,149.66a58.48,58.48,0,0,1-24.18-3,63.79,63.79,0,0,1-11.27-5.27A61.29,61.29,0,0,1,43.83,88.67,64.05,64.05,0,0,1,45.14,76,61.89,61.89,0,0,1,49,63.92,60.85,60.85,0,0,1,63.7,43.5a61.89,61.89,0,0,1,10-7.5A63.46,63.46,0,0,1,85,30.73a58.64,58.64,0,0,1,24.18-3,68.28,68.28,0,0,0-23,6.09,60.89,60.89,0,0,0-10.1,5.9,62.24,62.24,0,0,0-8.78,7.57A61,61,0,0,0,54.89,66.41a59.09,59.09,0,0,0,0,44.53,61.18,61.18,0,0,0,12.47,19.17,63.25,63.25,0,0,0,18.89,13.46A68,68,0,0,0,109.19,149.66Z" fill="#57cc99"/><path d="M95,60.78a26.17,26.17,0,0,1,11.18,1.09,28.22,28.22,0,0,1,0,53.62A26.06,26.06,0,0,1,95,116.56a30.88,30.88,0,0,0,18.75-9.33,27,27,0,0,0,0-37.11A30.81,30.81,0,0,0,95,60.78Z" fill="#57cc99"/></g></g></svg>